<svg width="23" height="17" viewBox="0 0 23 17" fill="none" xmlns="http://www.w3.org/2000/svg">
<path d="M21.0651 17H1.10869C0.814752 16.9997 0.532952 16.8827 0.325106 16.6749C0.11726 16.467 0.000342329 16.1852 0 15.8913V1.10877C0.000342329 0.814835 0.11726 0.533033 0.325106 0.325188C0.532952 0.117342 0.814752 0.000423431 1.10869 8.2016e-05H21.0651C21.3591 0.000423431 21.6409 0.117342 21.8487 0.325188C22.0565 0.533033 22.1735 0.814835 22.1738 1.10877V15.8913C22.1735 16.1852 22.0565 16.467 21.8487 16.6749C21.6409 16.8827 21.3591 16.9997 21.0651 17ZM21 16V12.5652H1V16H21ZM1 1V10H21V1H1Z" fill="#222222"/>
<path d="M6.28268 5.91309H3.32617V4.43483H6.28268V5.91309Z" fill="#222222"/>
<path d="M10.7172 5.91309H7.76074V4.43483H10.7172V5.91309Z" fill="#222222"/>
</svg>
