<svg xmlns="http://www.w3.org/2000/svg" xmlns:xlink="http://www.w3.org/1999/xlink" viewBox="0 0 867.81 229.79">
  <defs>
    <style>
      .cls-1 {
        fill: #fff;
      }

      .cls-2 {
        fill: url(#linear-gradient);
      }

      .cls-3, .cls-4 {
        fill: #1d1d1b;
      }

      .cls-4 {
        font-size: 95.66px;
        font-family: Sora-Medium, Sora;
        font-weight: 500;
      }

      .cls-5 {
        letter-spacing: -0.01em;
      }
    </style>
    <linearGradient id="linear-gradient" x1="20.5" y1="151.33" x2="346.89" y2="151.33" gradientUnits="userSpaceOnUse">
      <stop offset="0"/>
      <stop offset="1" stop-color="#e0232d"/>
    </linearGradient>
  </defs>
  <g id="Layer_7" data-name="Layer 7">
    <g>
      <g>
        <polygon class="cls-1" points="64.65 109.91 90.01 89.92 149.14 34.71 166.66 25.01 198.98 25.01 205.35 97.39 234.73 101.13 318.47 197.87 98.79 194.74 64.65 143.75 64.65 109.91"/>
        <path class="cls-1" d="M80.29,172H98.14l.74.13c7.11,1.25,11.8,5.52,12.25,11.12l.08,1-.15,1c-.86,5.61-5.66,9.53-11.66,9.53h-.31l-.3,0c-.17,0-1.25-.06-6.23-.06-6.39,0-15,.08-15.07.08L55.16,195Z"/>
        <path class="cls-1" d="M307.07,191.69c-17.52,0-26.93-7.89-27.95-8.79l-.31-.27-78-84,46-8.74L250,93.26c.52.54,52.53,54.55,63.9,64.77,11.69,9.77,17.36,10.77,21.92,11.57l1.78.33c4.95,1,8.5,3.14,10.56,6.42a10.71,10.71,0,0,1,1.41,8.37l-1.6,6.15-6.36.24c-.13,0-13.65.51-27.47.51l-3.94,0c-1.06.06-2.12.09-3.15.09Z"/>
        <path class="cls-1" d="M216.08,191.29H162.41l-.71-.13c-5.5-.93-16-8.39-30.31-21.57l-.23-.21-.21-.22a126.15,126.15,0,0,0-13.35-12.43l-9.43-7.25,9.87-6.63,27.18-18.26,34.39,30.51,1-47.19,44.51-15.06v70.37a16.29,16.29,0,0,0,1.23,6.59c2.36,0,4.31-.05,5.85-.05a29.32,29.32,0,0,1,4.45.16l.67.11.65.22c9.12,3,10.71,8,10.44,11.65-.21,2.84-1.81,7.82-10.16,9.26l-.67.12H216.08Z"/>
        <path class="cls-1" d="M52.89,168A9.88,9.88,0,0,1,43,158.15V70.36C42.76,56,41.81,38.62,40.71,33.2c-1-.91-2.83-2.2-13.62-2.82a9.89,9.89,0,0,1-9.32-9.87V19.39A9.9,9.9,0,0,1,27.65,9.5H94.6A9.9,9.9,0,0,1,104,22.36a13.33,13.33,0,0,1-5.53,7.05A9.89,9.89,0,0,1,93,31.05c-4.88,0-5.74.68-6,1.62V72.93c12.45-12.8,31.85-32.64,33.44-34.26a115.47,115.47,0,0,0,8-9.35,9.91,9.91,0,0,1,6.39-17.47h99.67l.73.13a9.46,9.46,0,0,1,7.84,7.56c1.3,7-5.2,10.87-7.34,12.16a19.8,19.8,0,0,1-9.84,2.58l-.41,0a1,1,0,0,0-.07.18v54a10,10,0,0,1-7.76,9.66l-24.84,5.47a9.6,9.6,0,0,1-2.13.24,9.9,9.9,0,0,1-9.89-9.89V36.85A8.22,8.22,0,0,0,180.1,34c-.33-.64-.39-.75-1.31-.75-1.17,0-3.81.4-8.6,3C163,41.74,137,66.76,112.54,91L130,110.16a9.89,9.89,0,0,1-2.76,15.42l-19.76,10.28a10.06,10.06,0,0,1-4.56,1.11,9.92,9.92,0,0,1-7.46-3.39l-7.92-9.09V142A9.86,9.86,0,0,1,83,150.3L58.28,166.43A9.86,9.86,0,0,1,52.89,168Z"/>
        <path class="cls-1" d="M45.63,221.84c-6.39-3.76-27.8-19.57-30.22-21.36l-.11-.08a8.45,8.45,0,0,1-.69-13l.1-.09c1.2-1.1,29.94-27.33,77.23-53.86a450,450,0,0,1,84.48-36.93c35.49-11.19,70.85-16.87,105.11-16.87a305.12,305.12,0,0,1,59.88,5.91,8.44,8.44,0,0,1,6.73,9l-.82,9.45h-.57a50.48,50.48,0,0,1-5.14-.44,300.18,300.18,0,0,0-35-2c-66.37,0-163.66,20.57-250.24,118.58l-.06.07a8.45,8.45,0,0,1-10.61,1.68Z"/>
        <path class="cls-1" d="M215.51,84.07c7.05-8.49,41.92-45.19,45.29-48.72l0-.05A50.73,50.73,0,0,0,264,31a1,1,0,0,0-.11-1.19h0A12.8,12.8,0,0,1,260.6,20l.34-6.37c0-.5,1.18-1.73,1.68-1.73h65.07a5.94,5.94,0,0,1,2.42,1.21l.57,1.15h0c1,2.42,2,9.14-.27,12.68-3.8,6-11.89,6.93-17.65,7.15-.21,0-5.37.42-21.22,14.16-8.78,7.6-16.15,15.28-16.22,15.35l-30,30.15a.72.72,0,0,1-.22.17l-1,.54c-3.26,1.74-10.89,3-21.49,3.66l-17.47,1a1,1,0,0,1-.79-1.56Z"/>
        <g>
          <path d="M323.48,20.4H269.14c-.2,3.84,2.19,4.41,3.12,4.37C279.61,26.34,267.2,41,267.2,41s-38,39.9-45.12,48.52c14.56-.85,17.95-2.67,17.95-2.67l29.11-29.23S299.47,26,312.44,25.49,323.48,20.4,323.48,20.4Z"/>
          <path d="M233.81,20.4H134.88a1.34,1.34,0,0,0-.11,2.67h.47c2.06-.06,1.94,2.3,1.94,2.3s.24,2.61.24,5.22-10.79,14-10.79,14S87,85.12,83.21,89.19a1.36,1.36,0,0,0-.21.32c-1,1.93-2,2.66-2.86,2.89a1.33,1.33,0,0,1-1.67-1.29V31.93a2.28,2.28,0,0,1,0-.26c1.63-9,10.35-9.17,14.55-9.17a1.29,1.29,0,0,0,.72-.21,4.85,4.85,0,0,0,2.12-2.49,1.34,1.34,0,0,0-1.28-1.74H27.65a1.33,1.33,0,0,0-1.33,1.33v1.12a1.33,1.33,0,0,0,1.26,1.33c16.71,1,17.25,3.87,20.25,6.24s3.72,42.21,3.72,42.21v87.86a1.33,1.33,0,0,0,2.06,1.12l24.74-16.13A1.34,1.34,0,0,0,79,142V105.23a1.34,1.34,0,0,1,2.34-.88L101.88,128a1.33,1.33,0,0,0,1.62.31L123.27,118a1.34,1.34,0,0,0,.37-2.08l-22.07-24.3a1.34,1.34,0,0,1,0-1.84c7.06-7,53.44-53,63.88-60.67l.15-.09c23.37-13,23.75,7.64,23.75,7.64V93.94a1.33,1.33,0,0,0,1.63,1.3l24.84-5.47a1.35,1.35,0,0,0,1-1.31V33.37A1.2,1.2,0,0,1,217,33c3.09-10.71,8.79-5.25,14.42-8.63S233.81,20.4,233.81,20.4Z"/>
        </g>
        <path class="cls-2" d="M346.89,95.48C170.78,55.45,20.5,193.6,20.5,193.6S43.78,210.83,50,214.47q13.58-15.37,27.45-28.26c.28,0,19.45-.19,22,0,2.2,0,3-1.23,3.21-2.28-.2-2.5-5.22-3.39-5.22-3.39H83.61a366.72,366.72,0,0,1,39.19-30.61,135.18,135.18,0,0,1,14.38,13.35c20,18.44,25.95,19.45,25.95,19.45s70,0,73.71,0c7.72-1.34-1.5-4.37-1.5-4.37s-.77-.12-9.26,0c-9.94.12-9.47-15.41-9.47-15.41V105.82l2-.58,66.16,71.26s8.49,7.52,25.23,6.55c15.16.12,31.29-.48,31.29-.48s.79-3-5.34-4.25c-5.58-1.09-12.73-1.33-27.65-13.83-11.51-10.3-64.38-65.21-64.46-65.3C301.4,87.8,343.22,95.66,346.89,95.48ZM77.66,186c1.84-1.72,3.69-3.4,5.53-5.06Zm110.1-12.23L145.22,136A332.76,332.76,0,0,1,189,115.14Z"/>
        <path class="cls-1" d="M342.4,85.83s17.71,4.84,14.48,11.23a12.83,12.83,0,0,1-9.56,7"/>
        <polygon class="cls-1" points="318 197.87 347.7 197.87 347.99 190.87 312.01 190.87 318 197.87"/>
      </g>
      <g>
        <g>
          <path class="cls-3" d="M401.39,108.37a45.67,45.67,0,0,1-17.92-3.31,38.63,38.63,0,0,1-13.32-9.12,39.39,39.39,0,0,1-8.34-13.55A46.63,46.63,0,0,1,359,66V63.58a43.89,43.89,0,0,1,2.69-15.11,41.59,41.59,0,0,1,7.89-13.33,37.64,37.64,0,0,1,12.77-9.4,41,41,0,0,1,17.29-3.47,42,42,0,0,1,18.59,4,33.78,33.78,0,0,1,13.1,11A32.37,32.37,0,0,1,437,53.39H423.33a18.93,18.93,0,0,0-4.09-10.19,22,22,0,0,0-8.51-6.32,27.89,27.89,0,0,0-11.14-2.18,27.07,27.07,0,0,0-11,2.18A24.66,24.66,0,0,0,380,43a27.24,27.24,0,0,0-5.49,9.51,37.94,37.94,0,0,0-1.9,12.38,40,40,0,0,0,2.07,13.43,27,27,0,0,0,5.88,9.8,25.06,25.06,0,0,0,9.12,6,34.47,34.47,0,0,0,27.21-1.56,25.14,25.14,0,0,0,10-9.46l-3.47,13.1V73.55H436V92.36a36.88,36.88,0,0,1-14.27,11.81A46.64,46.64,0,0,1,401.39,108.37Zm-2.8-32.14V65.71h44.22V76.23Z"/>
          <path class="cls-3" d="M455.91,106.35V46h10.41V71.2h-.44q0-13,5.71-19.43t16.9-6.44h2.13V56.86h-4q-8.5,0-13,4.54T469,74.33v32Z"/>
          <path class="cls-3" d="M530,108.37a34.93,34.93,0,0,1-14-2.63,30.81,30.81,0,0,1-10.18-7,29.46,29.46,0,0,1-6.27-9.91,31.71,31.71,0,0,1-2.13-11.48V75.11a31.63,31.63,0,0,1,2.18-11.53,30.22,30.22,0,0,1,16.63-17A35,35,0,0,1,530,44a34.61,34.61,0,0,1,13.72,2.57,31.12,31.12,0,0,1,10.24,7,30.18,30.18,0,0,1,6.44,10,31.63,31.63,0,0,1,2.18,11.53v2.24a31.91,31.91,0,0,1-2.12,11.48,29.77,29.77,0,0,1-6.27,9.91,31,31,0,0,1-10.19,7A34.89,34.89,0,0,1,530,108.37ZM530,97a19.35,19.35,0,0,0,10.52-2.75,17.79,17.79,0,0,0,6.67-7.44,23.69,23.69,0,0,0,2.29-10.53,23.4,23.4,0,0,0-2.35-10.63,18.27,18.27,0,0,0-6.72-7.45,21.15,21.15,0,0,0-20.82,0,18.27,18.27,0,0,0-6.72,7.45,23.4,23.4,0,0,0-2.35,10.63,23.69,23.69,0,0,0,2.29,10.53,17.79,17.79,0,0,0,6.67,7.44A19.37,19.37,0,0,0,530,97Z"/>
          <path class="cls-3" d="M598.33,108.14q-10.64,0-16.35-6.88t-5.71-20.32V46h13.1V82.73q0,6.27,3.47,9.91a12.4,12.4,0,0,0,9.41,3.64,13.37,13.37,0,0,0,9.9-3.87Q616,88.56,616,81.83V46h13.1v60.35H618.7V80.6h1.35a41.45,41.45,0,0,1-2.41,15.17,19.29,19.29,0,0,1-7,9.24,20.48,20.48,0,0,1-11.7,3.13Z"/>
          <path class="cls-3" d="M648.6,128.74V46H659V72.09L657,72q.56-9.51,4-15.68a22.66,22.66,0,0,1,9.18-9.18,26.4,26.4,0,0,1,12.54-3,27.8,27.8,0,0,1,11.75,2.41,27,27,0,0,1,9.07,6.66A29,29,0,0,1,709.34,63a36.58,36.58,0,0,1,2,12.09v2.13a35.43,35.43,0,0,1-2,12,29.52,29.52,0,0,1-5.82,9.91,28,28,0,0,1-9.07,6.71,27.29,27.29,0,0,1-11.75,2.47,27.69,27.69,0,0,1-12.32-2.8,22.56,22.56,0,0,1-9.41-9q-3.69-6.15-4.14-16l4.93,8.29v39.85Zm31.24-31.68A17.06,17.06,0,0,0,695.9,87a24.83,24.83,0,0,0,2.3-10.92,24.5,24.5,0,0,0-2.3-10.86,17.71,17.71,0,0,0-6.38-7.33,17.51,17.51,0,0,0-9.68-2.63,19.3,19.3,0,0,0-9.18,2.24A17.36,17.36,0,0,0,663.83,64a19,19,0,0,0-2.58,10.14v4.81a17.76,17.76,0,0,0,2.63,9.8,17.3,17.3,0,0,0,6.89,6.21A20,20,0,0,0,679.84,97.06Z"/>
          <path class="cls-3" d="M779.48,108.37a34.84,34.84,0,0,1-14-2.63,30.86,30.86,0,0,1-10.19-7A29.77,29.77,0,0,1,749,88.83a31.71,31.71,0,0,1-2.13-11.48V75.11a31.63,31.63,0,0,1,2.18-11.53,30.68,30.68,0,0,1,6.39-10,30.21,30.21,0,0,1,10.24-7A35,35,0,0,1,779.48,44a34.61,34.61,0,0,1,13.72,2.57,31.12,31.12,0,0,1,10.24,7,30.18,30.18,0,0,1,6.44,10,31.42,31.42,0,0,1,2.18,11.53v2.24a31.91,31.91,0,0,1-2.12,11.48,29.77,29.77,0,0,1-6.27,9.91,31,31,0,0,1-10.19,7A34.89,34.89,0,0,1,779.48,108.37Zm0-11.42A19.38,19.38,0,0,0,790,94.2a17.83,17.83,0,0,0,6.66-7.44A23.69,23.69,0,0,0,799,76.23a23.4,23.4,0,0,0-2.35-10.63,18.2,18.2,0,0,0-6.72-7.45,21.15,21.15,0,0,0-20.82,0,18.27,18.27,0,0,0-6.72,7.45A23.4,23.4,0,0,0,760,76.23a23.69,23.69,0,0,0,2.29,10.53A17.85,17.85,0,0,0,769,94.2,19.37,19.37,0,0,0,779.48,97Z"/>
          <path class="cls-3" d="M820.57,56.64V46.9h38.29v9.74Zm7.95,49.71V43.88q0-10.18,5.54-15.06T850.24,24h7.62V34.36h-9.07A7.67,7.67,0,0,0,843,36.49,8,8,0,0,0,841,42.31v64Z"/>
        </g>
        <text class="cls-4" transform="translate(353.13 190.1)"><tspan class="cls-5">R</tspan><tspan x="66.96" y="0">esidency</tspan></text>
      </g>
    </g>
  </g>
</svg>
